<?xml version="1.0" encoding="UTF-8" standalone="no"?>
<svg
   xmlns:dc="http://purl.org/dc/elements/1.1/"
   xmlns:cc="http://creativecommons.org/ns#"
   xmlns:rdf="http://www.w3.org/1999/02/22-rdf-syntax-ns#"
   xmlns:svg="http://www.w3.org/2000/svg"
   xmlns="http://www.w3.org/2000/svg"
   xmlns:sodipodi="http://sodipodi.sourceforge.net/DTD/sodipodi-0.dtd"
   xmlns:inkscape="http://www.inkscape.org/namespaces/inkscape"
   version="1.1"
   viewBox="0 0 962 150.66142"
   stroke-miterlimit="10"
   id="svg13"
   sodipodi:docname="banner.svg"
   width="962"
   height="150.66142"
   style="fill:none;stroke:none;stroke-linecap:square;stroke-miterlimit:10"
   inkscape:version="0.92.2 5c3e80d, 2017-08-06">
  <metadata
     id="metadata19">
    <rdf:RDF>
      <cc:Work
         rdf:about="">
        <dc:format>image/svg+xml</dc:format>
        <dc:type
           rdf:resource="http://purl.org/dc/dcmitype/StillImage" />
        <dc:title></dc:title>
      </cc:Work>
    </rdf:RDF>
  </metadata>
  <defs
     id="defs17" />
  <sodipodi:namedview
     pagecolor="#ffffff"
     bordercolor="#666666"
     borderopacity="1"
     objecttolerance="10"
     gridtolerance="10"
     guidetolerance="10"
     inkscape:pageopacity="0"
     inkscape:pageshadow="2"
     inkscape:window-width="1654"
     inkscape:window-height="879"
     id="namedview15"
     showgrid="false"
     inkscape:showpageshadow="false"
     fit-margin-top="1"
     fit-margin-left="1"
     fit-margin-right="1"
     fit-margin-bottom="1"
     inkscape:zoom="0.95459415"
     inkscape:cx="481"
     inkscape:cy="-36.533332"
     inkscape:window-x="0"
     inkscape:window-y="0"
     inkscape:window-maximized="0"
     inkscape:current-layer="svg13" />
  <clipPath
     id="gdf234dd03e_0_0.0">
    <path
       d="M 0,0 H 960 V 540 H 0 Z"
       id="path2"
       inkscape:connector-curvature="0"
       style="clip-rule:nonzero" />
  </clipPath>
  <path
     style="fill:#000000;fill-opacity:0;fill-rule:evenodd"
     inkscape:connector-curvature="0"
     id="path7"
     d="M 1,1 H 961 V 149.66142 H 1 Z" />
  <path
     style="fill:#000000;fill-rule:nonzero"
     inkscape:connector-curvature="0"
     id="path9"
     d="m 245.84674,36.25937 21.54687,31.875 22.29688,-31.875 h 8.07812 l -26,37.078125 27.5,39.062495 h -8.75 l -23.125,-33.593745 -23.48437,33.593745 h -8.21875 l 27.4375,-39.26562 -25.82813,-36.875 z m 90.44714,0 29.90625,76.14062 h -7.8125 L 349.10638,88.69687 H 314.4345 l -9.17187,23.70312 H 297.497 l 30.67188,-76.14062 z m -19.625,46.296875 h 30 l -14.75,-39 z M 380.88107,36.25937 v 76.14062 H 373.6467 V 36.25937 Z m 41.28934,43.703125 v 6.1875 h -26.65625 v -6.1875 z M 468.9895,36.25937 q 11,0 17.45312,4.6875 6.45313,4.6875 6.45313,13.90625 0,5.984375 -3.625,10.859375 -3.60938,4.875 -9.59375,6.28125 v 0.203125 q 7.28125,0.9375 11.6875,6 4.40625,5.046875 4.40625,12.53125 0,10.6875 -6.95313,16.1875 -6.95312,5.48437 -19.76562,5.48437 H 436.2395 V 36.25937 Z m -0.0937,33.390625 q 7.34375,0 12.04687,-3.484375 4.71875,-3.5 4.71875,-9.484375 0,-7.1875 -4.40625,-10.703125 -4.39062,-3.515625 -12.89062,-3.515625 h -24.82813 v 27.1875 z m 0.0937,36.546875 q 9.53125,0 14.53125,-3.875 5,-3.875 5,-11.796875 0,-7.28125 -5.23438,-10.984375 Q 478.052,75.837495 468.427,75.837495 h -24.89063 v 30.359375 z m 59.21698,-50.40625 q 11.20312,0 17.70312,8.125 6.51563,8.125 6.51563,21.671875 v 1.078125 h -42.34375 q 0.15625,9.59375 5.125,15.64062 4.98437,6.03125 13,6.03125 6.71875,0 11.03125,-3.45312 4.32812,-3.46875 6.26562,-10.609375 h 6.71875 q -2.34375,9.953125 -8.23437,14.843745 -5.89063,4.89063 -15.78125,4.89063 -11.65625,0 -18.25,-7.8125 -6.59375,-7.8125 -6.59375,-21.296875 0,-12.8125 6.60937,-20.953125 6.625,-8.15625 18.23438,-8.15625 z m 17.5,25.265625 q -0.26563,-8.1875 -5.14063,-13.90625 -4.85937,-5.734375 -12.46875,-5.734375 -7.125,0 -12,5.3125 -4.85937,5.3125 -6.01562,14.328125 z M 585.95629,55.79062 q 10.57813,0 15.34375,5.15625 4.76563,5.15625 4.76563,15.515625 v 35.937495 h -6.71875 V 77.618745 q 0,-7.96875 -3.46875,-12.078125 -3.45313,-4.125 -10.48438,-4.125 -5.51562,0 -9.5,2.6875 -3.98437,2.671875 -5.89062,7.1875 -1.90625,4.5 -1.90625,8.921875 v 32.187495 h -6.71875 V 57.35312 h 6.71875 v 9.53125 h 0.21875 q 1.92187,-4.953125 6.76562,-8.015625 4.84375,-3.078125 10.875,-3.078125 z m 56.03607,0 q 9.6875,0 15.4375,5 5.76563,5 6.85938,13.859375 h -6.71875 q -1.45313,-6.5625 -5.35938,-9.890625 -3.90625,-3.34375 -10.21875,-3.34375 -8.64062,0 -13.95312,6.796875 -5.3125,6.796875 -5.3125,16.6875 0,9.796875 5.3125,16.624995 5.3125,6.8125 13.95312,6.8125 6.04688,0 10.625,-4.26562 4.59375,-4.28125 5.42188,-11.40625 h 6.71875 q -1.5625,10.25 -7.5625,15.79687 -5.98438,5.54688 -15.20313,5.54688 -11.65625,0 -18.82812,-8.20313 -7.15625,-8.20312 -7.15625,-20.906245 0,-12.75 7.14062,-20.921875 7.14063,-8.1875 18.84375,-8.1875 z m 38.74982,-19.53125 v 30.625 h 0.21875 q 1.92188,-4.953125 6.76563,-8.015625 4.84375,-3.078125 10.875,-3.078125 10.57812,0 15.34375,5.15625 4.76562,5.15625 4.76562,15.515625 v 35.937495 h -6.71875 V 77.618745 q 0,-7.96875 -3.46875,-12.078125 -3.45312,-4.125 -10.48437,-4.125 -5.51563,0 -9.5,2.6875 -3.98438,2.671875 -5.89063,7.1875 -1.90625,4.5 -1.90625,8.921875 v 32.187495 h -6.71875 V 36.25937 Z" />
</svg>
