<?xml version="1.0" encoding="UTF-8"?>
<svg width="962" height="150.66" fill="none" stroke-linecap="square" stroke-miterlimit="10" version="1.1" viewBox="0 0 962 150.66142" xmlns="http://www.w3.org/2000/svg" xmlns:cc="http://creativecommons.org/ns#" xmlns:dc="http://purl.org/dc/elements/1.1/" xmlns:rdf="http://www.w3.org/1999/02/22-rdf-syntax-ns#">
 <metadata>
  <rdf:RDF>
   <cc:Work rdf:about="">
    <dc:format>image/svg+xml</dc:format>
    <dc:type rdf:resource="http://purl.org/dc/dcmitype/StillImage"/>
    <dc:title/>
   </cc:Work>
  </rdf:RDF>
 </metadata>
 <clipPath>
  <path d="m0 0h960v540h-960z"/>
 </clipPath>
 <rect x="1" y="1" width="960" height="148.66" fill="#fff" style="paint-order:fill markers stroke"/>
 <path d="m1 1h960v148.66h-960z" fill-opacity="0"/>
 <path d="m245.85 36.259 21.547 31.875 22.297-31.875h8.0781l-26 37.078 27.5 39.062h-8.75l-23.125-33.594-23.484 33.594h-8.2188l27.438-39.266-25.828-36.875zm90.447 0 29.906 76.141h-7.8125l-9.2812-23.703h-34.672l-9.1719 23.703h-7.7656l30.672-76.141zm-19.625 46.297h30l-14.75-39zm64.212-46.297v76.141h-7.2344v-76.141zm41.289 43.703v6.1875h-26.656v-6.1875zm46.819-43.703q11 0 17.453 4.6875 6.4531 4.6875 6.4531 13.906 0 5.9844-3.625 10.859-3.6094 4.875-9.5938 6.2812v0.20312q7.2812 0.9375 11.688 6 4.4062 5.0469 4.4062 12.531 0 10.688-6.9531 16.188-6.9531 5.4844-19.766 5.4844h-32.812v-76.141zm-0.0937 33.391q7.3438 0 12.047-3.4844 4.7188-3.5 4.7188-9.4844 0-7.1875-4.4062-10.703-4.3906-3.5156-12.891-3.5156h-24.828v27.188zm0.0937 36.547q9.5312 0 14.531-3.875t5-11.797q0-7.2812-5.2344-10.984-5.2344-3.7031-14.859-3.7031h-24.891v30.359zm59.217-50.406q11.203 0 17.703 8.125 6.5156 8.125 6.5156 21.672v1.0781h-42.344q0.15625 9.5938 5.125 15.641 4.9844 6.0312 13 6.0312 6.7188 0 11.031-3.4531 4.3281-3.4688 6.2656-10.609h6.7188q-2.3438 9.9531-8.2344 14.844-5.8906 4.8906-15.781 4.8906-11.656 0-18.25-7.8125t-6.5938-21.297q0-12.812 6.6094-20.953 6.625-8.1562 18.234-8.1562zm17.5 25.266q-0.26563-8.1875-5.1406-13.906-4.8594-5.7344-12.469-5.7344-7.125 0-12 5.3125-4.8594 5.3125-6.0156 14.328zm40.25-25.266q10.578 0 15.344 5.1562 4.7656 5.1562 4.7656 15.516v35.937h-6.7188v-34.781q0-7.9688-3.4688-12.078-3.4531-4.125-10.484-4.125-5.5156 0-9.5 2.6875-3.9844 2.6719-5.8906 7.1875-1.9062 4.5-1.9062 8.9219v32.187h-6.7188v-55.047h6.7188v9.5312h0.21875q1.9219-4.9531 6.7656-8.0156 4.8438-3.0781 10.875-3.0781zm56.036 0q9.6875 0 15.438 5 5.7656 5 6.8594 13.859h-6.7188q-1.4531-6.5625-5.3594-9.8906-3.9062-3.3438-10.219-3.3438-8.6406 0-13.953 6.7969t-5.3125 16.688q0 9.7969 5.3125 16.625 5.3125 6.8125 13.953 6.8125 6.0469 0 10.625-4.2656 4.5938-4.2812 5.4219-11.406h6.7188q-1.5625 10.25-7.5625 15.797-5.9844 5.5469-15.203 5.5469-11.656 0-18.828-8.2031-7.1562-8.2031-7.1562-20.906 0-12.75 7.1406-20.922 7.1406-8.1875 18.844-8.1875zm38.75-19.531v30.625h0.21875q1.9219-4.9531 6.7656-8.0156 4.8438-3.0781 10.875-3.0781 10.578 0 15.344 5.1562 4.7656 5.1562 4.7656 15.516v35.937h-6.7188v-34.781q0-7.9688-3.4688-12.078-3.4531-4.125-10.484-4.125-5.5156 0-9.5 2.6875-3.9844 2.6719-5.8906 7.1875-1.9062 4.5-1.9062 8.9219v32.187h-6.7188v-76.141z" fill="#000"/>
</svg>
